<?xml version="1.0"?>
<svg width="600" height="350" xmlns="http://www.w3.org/2000/svg" xmlns:svg="http://www.w3.org/2000/svg">
 <g class="layer">
  <title>Layer 1</title>
  <rect fill="#FFFFFF" height="200" id="svg_1" rx="10" stroke="#000000" stroke-width="3" width="450" x="100" y="50"/>
  <path d="m100,60l-20,20l0,140l20,20" fill="none" id="svg_2" stroke="#000000" stroke-width="2"/>
  <path d="m115,65l265,0l-70,170l-195,0l0,-170z" fill="#0D0D0D" id="svg_3" transform="matrix(1 0 0 1 0 0)"/>
  <path d="m390,65l145,0l0,170l-215,0l70,-170" fill="#F4C123" id="svg_4"/>
  <path d="m48,100c-60,0 -60,180 170,180" fill="none" id="svg_7" stroke="#C43033" stroke-width="12" transform="matrix(1 0 0 1 4 10)"/>
  <path d="m80,140c-40,0 -40,140 170,140" fill="none" id="svg_8" stroke="#000000" stroke-width="10" transform="matrix(1 0 0 1 -32 -11)"/>
  <rect fill="#1685C5" height="40" id="svg_9" stroke="#000000" stroke-width="2" transform="matrix(1 0 0 1 -33 -9)" width="60" x="250" y="270"/>
  <rect fill="#F8F8F8" height="50" id="svg_11" rx="2" stroke="#000000" stroke-width="1.5" width="40" x="50" y="90"/>
 </g>
</svg>