<?xml version="1.0"?>
<svg width="6000" height="7800" xmlns="http://www.w3.org/2000/svg" xmlns:svg="http://www.w3.org/2000/svg">
 <g class="layer">
  <title>Layer 1</title>
  <path d="m2754.71,6669.84c-9.88,-3.88 -26.81,-14.22 -37.4,-23.92c-18.35,-16.16 -23.28,-16.81 -88.2,-17.45l-68.44,0l-44.45,-31.68c-52.92,-36.85 -71.97,-62.71 -71.97,-96.32c0,-25.86 -2.82,-29.09 -65.62,-77.57c-21.87,-16.81 -28.93,-28.44 -37.4,-59.47c-28.22,-111.19 -1.41,-167.43 85.38,-180.36c78.32,-10.99 100.9,-27.15 186.98,-129.94c45.86,-55.59 83.26,-85.98 134.06,-109.9c43.75,-20.69 95.96,-73.05 119.95,-121.53c10.58,-21.98 72.68,-185.53 137.59,-363.3s139,-374.29 163.7,-436.35c25.4,-62.06 52.21,-135.11 59.97,-161.61c19.05,-65.94 22.58,-171.31 13.41,-391.1c-9.88,-236.6 -10.58,-239.19 -129.83,-494.53c-28.93,-62.06 -88.2,-190.06 -131.94,-284.44c-129.83,-281.2 -233.55,-492.59 -254.01,-520.39c-27.52,-36.2 -38.1,-43.96 -110.07,-76.93c-62.8,-29.09 -116.42,-71.76 -193.33,-154.5c-33.16,-34.91 -74.09,-54.95 -129.12,-62.06c-84.67,-10.99 -117.83,-42.67 -117.83,-111.84c0,-64.64 11.99,-100.2 40.92,-120.24c52.92,-36.85 57.86,-43.96 57.86,-78.87c0,-43.96 11.99,-63.35 67.74,-105.37c51.51,-39.43 64.21,-43.31 122.07,-38.79c38.1,3.23 40.92,2.59 74.09,-23.27c42.34,-31.03 74.79,-37.49 142.53,-27.15c95.96,15.51 110.78,32.32 112.19,125.41c1.41,78.87 7.76,93.73 76.2,171.31c57.15,64.64 80.44,105.37 93.84,164.2c13.41,60.12 28.93,85.98 74.79,126.06c84.67,75.63 706.29,484.84 818.48,538.49c82.55,40.08 110.78,45.9 220.85,49.78c117.83,3.88 177.1,-5.82 254.01,-40.08c43.04,-19.39 170.05,-106.66 313.99,-215.27c16.93,-12.93 107.95,-80.16 201.09,-148.68c335.86,-248.24 349.97,-262.46 373.25,-380.76c14.82,-71.11 23.99,-89.86 87.49,-175.19l54.33,-73.69l0,-83.39c0,-73.05 2.12,-84.68 14.82,-100.85c19.76,-25.21 54.33,-39.43 112.89,-46.54c59.27,-7.76 88.9,-1.94 126.3,25.21c26.11,18.75 28.22,19.39 81.85,15.51c60.68,-4.53 75.5,0 138.29,47.19c38.1,28.44 45.16,40.08 54.33,89.21c7.06,36.2 9.88,40.08 40.92,58.18c46.57,27.15 68.44,74.99 69.15,148.68c0,59.47 -35.98,89.86 -127.71,106.66c-47.27,8.4 -81.85,32.97 -131.24,92.44c-52.21,64 -93.84,100.85 -143.23,125.41c-119.24,60.77 -112.19,48.48 -301.28,548.19c-199.68,528.15 -216.61,576.63 -227.9,660.67c-7.76,54.95 2.12,411.79 14.11,490.01c8.47,57.53 35.98,145.45 62.09,198.46c35.28,70.46 218.03,465.44 333.04,719.5c81.85,179.07 95.96,196.52 206.74,247.59c45.16,20.69 69.15,37.49 103.72,70.46c24.7,24.56 61.39,60.12 81.14,80.16c39.51,38.14 61.39,47.19 132.65,54.95c95.96,10.34 127.71,67.88 99.49,177.13c-12.7,51.07 -23.28,66.58 -59.27,87.27c-27.52,16.16 -28.22,17.45 -28.22,52.36c0,43.31 -13.41,65.94 -59.27,100.85c-60.68,46.54 -76.91,52.36 -128.42,47.19l-46.57,-4.53l-28.22,25.21l-27.52,24.56l-75.5,0c-86.08,-0.65 -117.83,-10.34 -144.64,-44.6c-14.11,-18.1 -15.52,-26.5 -13.41,-85.98c2.12,-79.51 -1.41,-87.92 -75.5,-171.95c-62.09,-70.46 -76.2,-95.67 -89.61,-157.09c-11.99,-58.83 -20.46,-74.34 -63.5,-118.3c-39.51,-40.73 -36.69,-38.14 -345.03,-236.6c-452.28,-291.55 -489.68,-312.88 -576.46,-332.27c-91.73,-20.04 -226.49,-13.58 -312.57,14.87c-70.56,23.27 -111.48,49.13 -287.88,181.01c-90.31,67.23 -234.96,174.54 -322.45,239.19c-172.87,127.35 -271.65,212.68 -292.11,252.76c-7.06,13.58 -15.52,47.19 -19.05,74.34c-9.17,82.75 -9.17,83.39 -97.37,201.69l-44.45,60.12l4.23,72.4c7.76,109.9 -8.47,131.88 -107.95,148.04c-62.8,10.34 -82.55,10.34 -106.54,1.94zm-62.09,-146.1c25.4,-20.69 12.7,-124.12 -16.93,-138.34c-23.28,-11.64 -109.37,4.53 -130.53,23.92c-35.98,32.97 -6.35,89.21 64.91,120.24c31.05,12.93 62.09,10.99 82.55,-5.82zm142.53,-58.83c20.46,-21.33 1.41,-78.87 -26.81,-78.87c-24.7,0 -34.57,15.51 -30.34,45.25c6.35,43.96 31.75,58.83 57.15,33.62zm3030.49,-53.01c33.87,-22.63 57.15,-54.3 57.15,-77.57c0,-37.49 -35.28,-56.24 -111.48,-59.47c-52.21,-1.94 -60.68,7.76 -63.5,72.4c-2.82,47.84 -1.41,52.36 15.52,67.23c25.4,23.92 63.5,22.63 102.31,-2.59zm-205.33,-46.54c3.53,-4.53 9.17,-20.69 11.99,-34.91c4.23,-26.5 -7.06,-47.84 -25.4,-47.84c-30.34,0 -50.8,43.96 -35.28,74.99c8.47,16.81 35.98,21.33 48.69,7.76zm-2825.87,-50.42c27.52,-28.44 26.81,-69.17 -1.41,-98.26c-18.35,-18.75 -25.4,-21.33 -55.74,-21.33c-28.22,0 -39.51,3.23 -53.62,15.51c-33.16,28.44 -35.98,75.63 -6.35,106.02c30.34,31.03 86.08,30.38 117.13,-1.94zm-194.74,-10.34c11.99,-15.51 11.99,-19.39 -4.94,-34.91c-11.99,-10.99 -19.76,-12.28 -40.92,-9.05c-23.99,3.23 -50.8,21.98 -50.8,34.91c0,3.23 5.64,10.34 11.99,16.16c15.52,14.22 71.26,9.7 84.67,-7.11zm349.97,-42.67c14.82,-7.11 15.52,-32.97 0.71,-44.6c-25.4,-19.39 -87.49,0 -87.49,27.15c0,27.15 46.57,36.85 86.79,17.45zm2725.68,-46.54c19.76,-18.1 23.99,-27.15 23.99,-49.13c0,-86.62 -121.36,-105.37 -154.52,-24.56c-18.35,43.96 23.99,95.67 77.61,95.67c23.28,0 33.16,-3.88 52.92,-21.98zm163.7,-7.76c32.46,-20.69 7.76,-54.3 -40.92,-54.3c-28.93,0 -42.34,9.05 -42.34,29.74c0,17.45 11.29,26.5 38.81,30.38c11.99,1.29 22.58,3.23 24.7,3.88c2.12,0 11.29,-3.88 19.76,-9.7zm-347.15,-55.59c6.35,-19.39 -19.05,-37.49 -52.92,-37.49c-29.63,0 -43.04,9.05 -43.04,29.74c0,18.1 11.99,27.15 42.34,29.74c31.05,2.59 47.27,-3.88 53.62,-21.98zm-2757.43,-30.38c4.94,-45.9 -17.64,-73.69 -47.98,-58.83c-10.58,5.17 -14.11,13.58 -14.11,32.97c0,38.14 10.58,52.36 37.4,49.78c19.76,-1.94 22.58,-4.53 24.7,-23.92zm2928.18,-85.98c3.53,-4.53 9.17,-18.1 11.99,-29.74c9.88,-41.37 -31.75,-70.46 -55.74,-38.79c-13.41,17.45 -14.82,57.53 -2.82,68.52c11.29,10.34 37.4,9.7 46.57,0zm-2519.64,-200.4c11.99,-8.4 71.97,-53.01 134.06,-98.91c61.39,-46.54 172.87,-130.58 247.66,-187.47c149.58,-111.84 189.8,-149.98 218.73,-203.63c16.93,-31.68 19.05,-42.67 19.05,-100.85c0,-62.06 -1.41,-66.58 -26.81,-113.77c-30.34,-56.89 -71.97,-94.38 -131.94,-120.89c-31.75,-13.58 -48.69,-16.81 -95.96,-16.81c-50.1,0 -61.39,2.59 -103.72,21.98c-62.8,29.09 -112.89,75.63 -143.23,133.81c-13.41,25.21 -23.99,49.13 -23.99,52.36c0,3.88 -45.16,129.94 -99.49,280.56c-109.37,299.95 -117.13,331.63 -84.67,355.55c22.58,16.81 62.8,16.16 90.31,-1.94zm2130.87,-73.69c28.93,-26.5 20.46,-60.77 -54.33,-225.61c-35.28,-78.22 -90.31,-200.4 -122.07,-271.51c-31.05,-71.11 -68.44,-146.74 -81.85,-168.08c-31.05,-49.13 -80.44,-92.44 -136.88,-120.24c-40.22,-20.04 -48.69,-21.98 -104.43,-21.98c-54.33,0 -64.21,1.94 -107.25,21.98c-57.15,26.5 -91.02,58.83 -120.66,116.36c-19.76,38.79 -21.87,48.48 -21.87,107.31c0,56.24 2.12,69.17 19.05,101.49c35.28,68.52 141.82,150.62 444.52,340.68c234.96,148.04 249.07,153.21 285.76,119.59zm-1023.8,-516.51c24.7,-14.87 31.75,-36.2 35.98,-114.42c6.35,-102.79 -11.99,-137.05 -92.43,-175.83c-19.05,-9.05 -43.75,-16.81 -55.04,-16.81c-40.92,0 -121.36,51.07 -144.64,93.09c-18.35,32.97 -2.12,179.71 23.99,216.56c10.58,15.51 11.29,15.51 112.89,11.64c76.91,-2.59 106.54,-6.46 119.24,-14.22zm-876.34,-316.76c30.34,-28.44 11.99,-71.11 -31.05,-71.11c-16.93,0 -26.81,4.53 -36.69,16.81c-22.58,27.8 -2.12,64 36.69,64c11.29,0 24.7,-4.53 31.05,-9.7zm444.52,-13.58c38.1,-12.28 124.18,-81.45 143.23,-115.07c9.88,-17.45 10.58,-39.43 5.64,-168.72c-2.82,-81.45 -7.06,-211.39 -9.88,-287.67c-5.64,-162.26 -8.47,-170.66 -76.91,-225.61c-78.32,-62.06 -136.18,-73.05 -189.8,-35.55c-33.87,23.27 -287.88,290.9 -303.4,319.34c-10.58,18.1 -11.99,36.2 -10.58,96.32c1.41,48.48 5.64,80.81 11.99,93.73c16.23,31.03 301.99,301.89 335.86,319.34c35.28,16.81 49.39,17.45 93.84,3.88zm701.35,-18.1c10.58,-5.17 35.28,-24.56 55.04,-43.96c64.91,-62.71 253.31,-264.4 265.3,-285.08c9.17,-16.16 11.99,-38.14 12.7,-100.85c0,-43.96 -3.53,-91.15 -8.47,-105.37c-6.35,-20.04 -38.81,-52.36 -166.52,-165.49c-86.79,-76.93 -165.11,-143.51 -173.57,-148.04c-21.87,-11.64 -74.09,-9.7 -106.54,3.88c-15.52,6.46 -50.8,33.62 -78.32,60.12c-58.56,56.24 -62.8,68.52 -55.74,156.44c2.82,32.32 8.47,157.73 13.41,278.62c9.88,250.82 9.88,250.18 74.79,301.89c66.33,53.01 123.48,69.17 167.93,47.84zm428.29,-19.39c19.05,-12.28 16.93,-47.84 -2.82,-63.35c-23.28,-16.81 -46.57,-14.87 -63.5,5.17c-17.64,20.69 -18.35,33.62 -3.53,53.01c12.7,16.81 48.69,19.39 69.85,5.17zm-799.43,-363.95c28.22,-23.27 8.47,-73.05 -29.63,-73.05c-43.04,0 -61.39,56.89 -25.4,78.87c13.41,8.4 41.63,5.82 55.04,-5.82zm-801.54,-373.65c33.16,-47.19 -36.69,-94.38 -74.79,-50.42c-26.81,31.03 -5.64,66.58 40.22,66.58c16.93,0 26.11,-4.53 34.57,-16.16zm1582.63,-45.9c17.64,-20.69 18.35,-33.62 3.53,-53.01c-7.06,-9.7 -17.64,-14.22 -33.87,-14.22c-31.05,0 -47.27,12.28 -47.98,37.49c-1.41,43.31 50.1,62.71 78.32,29.74zm-754.98,-97.61c26.81,-16.16 45.16,-34.26 55.74,-53.66c14.82,-26.5 16.23,-34.26 11.99,-84.04c-7.06,-78.87 -16.23,-117.65 -31.05,-131.23c-16.23,-15.51 -81.14,-20.69 -165.81,-14.22c-86.08,6.46 -88.9,9.05 -96.67,99.55c-9.88,113.77 8.47,152.56 92.43,194.58c50.1,25.21 79.73,23.27 133.36,-10.99zm-607.51,-5.17c91.73,-45.9 142.53,-128 142.53,-230.14c0,-128.64 -31.05,-156.44 -532.01,-479.02c-136.18,-87.92 -171.46,-105.37 -202.5,-98.91c-49.39,10.34 -52.92,57.53 -10.58,151.92c103.72,231.43 245.54,526.85 268.12,557.88c31.75,43.96 85.38,83.39 143.23,105.37c58.56,22.63 137.59,19.39 191.21,-7.11zm1253.12,-34.91c74.09,-32.97 127.01,-86.62 160.17,-162.9c8.47,-19.39 60.68,-158.38 116.42,-309c111.48,-301.24 117.13,-324.52 83.26,-349.08c-26.11,-18.75 -57.86,-16.81 -95.96,5.17c-68.44,40.08 -463.57,337.45 -529.89,398.86c-95.25,88.56 -112.19,188.12 -50.8,303.83c35.98,67.88 105.84,120.24 174.28,130.58c42.34,7.11 105.13,-1.29 142.53,-17.45zm-2226.12,-976.14c11.29,-18.1 11.29,-56.24 1.41,-67.88c-12.7,-14.22 -40.92,-12.93 -50.1,1.94c-9.88,17.45 -9.17,60.77 1.41,70.46c12.7,11.64 39.51,9.05 47.27,-4.53zm2969.81,-85.98c14.11,-12.93 10.58,-61.41 -5.64,-76.28c-16.23,-14.87 -21.17,-15.51 -36.69,-4.53c-19.76,13.58 -19.05,56.89 1.41,75.63c16.23,14.87 28.93,16.16 40.92,5.17zm-2935.23,-46.54c55.74,-26.5 51.51,-111.84 -6.35,-133.17c-53.62,-20.69 -112.19,14.87 -112.19,67.23c0,58.18 62.09,92.44 118.54,65.94zm183.45,-24.56c12.7,-11.64 10.58,-36.2 -3.53,-42.67c-42.34,-19.39 -86.79,-9.05 -86.79,20.69c0,21.33 13.41,29.74 49.39,29.74c17.64,0 35.98,-3.23 40.92,-7.76zm-361.97,-40.08c21.87,-30.38 -19.76,-58.18 -70.56,-46.54c-33.87,7.76 -29.63,51.07 5.64,57.53c38.81,7.11 54.33,4.53 64.91,-10.99zm3101.75,-27.8c40.22,-21.98 48.69,-78.87 17.64,-115.07c-12.7,-14.22 -22.58,-18.1 -50.8,-20.69c-43.75,-3.23 -66.33,7.11 -83.26,38.79c-35.28,66.58 45.86,135.11 116.42,96.97zm-205.33,-7.76c21.87,-5.82 36.69,-31.03 27.52,-47.19c-9.88,-16.81 -64.91,-16.16 -83.96,1.29c-16.93,15.51 -17.64,24.56 -2.12,40.08c11.99,12.28 28.22,13.58 58.56,5.82zm361.26,-54.95c24.7,-5.17 37.4,-25.21 26.81,-42.67c-11.29,-19.39 -72.68,-18.75 -87.49,1.29c-6.35,7.76 -11.29,16.81 -11.29,19.39c0,10.99 29.63,31.68 40.92,28.44c6.35,-1.29 20.46,-4.53 31.05,-6.46zm-3237.22,-24.56c22.58,-9.05 32.46,-38.14 32.46,-93.09c0,-48.48 -14.11,-64 -59.27,-64c-58.56,0 -117.13,51.72 -117.13,104.08c0,33.62 13.41,44.6 63.5,53.01c54.33,8.4 60.68,9.05 80.44,0zm159.46,-14.87c12.7,-14.22 17.64,-59.47 7.06,-71.11c-10.58,-11.64 -38.1,-12.93 -47.98,-1.29c-11.99,13.58 -17.64,53.66 -9.17,68.52c9.88,15.51 37.4,18.1 50.1,3.88zm2874.55,-92.44c8.47,-9.05 9.88,-18.1 7.06,-34.26c-7.76,-37.49 -15.52,-45.25 -40.22,-43.31c-21.17,1.94 -22.58,3.88 -24.7,29.74c-3.53,48.48 29.63,76.28 57.86,47.84zm196.86,3.88c50.1,-9.7 65.62,-25.21 59.27,-60.77c-5.64,-32.32 -21.87,-51.72 -59.97,-74.34c-33.87,-19.39 -74.79,-24.56 -100.19,-12.28c-28.93,14.22 -26.11,112.48 4.23,140.28c18.35,16.81 36.69,18.1 96.67,7.11z" fill="#000" id="svg_1" transform="matrix(-0.0326905 0.999466 -0.999466 -0.0326905 7664.35 -18.1857)"/>
 </g>
</svg>