<?xml version="1.0"?>
<svg width="165" height="284" xmlns="http://www.w3.org/2000/svg" xmlns:svg="http://www.w3.org/2000/svg" preserveAspectRatio="xMidYMid meet">
 <g class="layer">
  <title>Layer 1</title>
  <g fill="#000000" id="svg_1" transform="matrix(-0.0999978 -0.000659847 0.000659847 -0.0999978 173.841 285.073)">
   <path d="m595,2593c-73,-19 -90,-59 -60,-144c28,-81 4,-168 -56,-199c-10,-6 -31,-32 -46,-58c-28,-47 -28,-49 -31,-248c-4,-227 -1,-237 74,-319c72,-78 79,-124 33,-211l-32,-59l16,-60c9,-34 19,-86 23,-117c5,-43 11,-57 25,-61c27,-7 35,-53 14,-77c-27,-29 -12,-171 21,-207c29,-31 30,-52 6,-84c-17,-22 -17,-36 -6,-214c6,-104 12,-191 13,-192c0,-1 23,-17 50,-37c73,-54 166,-54 202,1c39,60 55,64 89,23c16,-19 30,-40 30,-46c0,-28 107,-31 158,-5c64,33 90,66 96,124c27,292 28,337 5,337c-21,0 -9,65 16,85c29,23 50,185 26,199c-21,13 -13,70 11,81c17,8 25,24 34,75c7,36 17,78 23,93c16,40 14,79 -5,106c-54,77 -44,155 31,231c77,79 85,107 85,319c0,203 -7,233 -69,297c-72,73 -87,134 -51,204c26,52 25,86 -4,115c-51,51 -145,43 -183,-15c-58,-90 -38,-82 -200,-78l-145,3l-29,33c-16,18 -29,39 -29,46c0,41 -76,73 -135,59zm69,-88c8,-22 -4,-45 -24,-45c-23,0 -44,26 -36,45c7,19 52,20 60,0zm570,-1c19,-7 21,-50 4,-57c-20,-7 -48,12 -48,32c0,29 13,37 44,25zm-293,-139c-1,-15 -24,-12 -29,3c-3,9 2,13 12,10c10,-1 17,-7 17,-13zm239,0c0,-3 -2,-5 -5,-5c-3,0 -5,2 -5,5c0,3 2,5 5,5c3,0 5,-2 5,-5zm-540,-40c0,-3 -2,-5 -5,-5c-3,0 -5,2 -5,5c0,3 2,5 5,5c3,0 5,-2 5,-5zm90,0c0,-3 -2,-5 -5,-5c-3,0 -5,2 -5,5c0,3 2,5 5,5c3,0 5,-2 5,-5zm253,-35c131,2 151,-28 72,-107l-44,-45l-85,3l-85,4l-46,45c-76,74 -63,115 34,106c36,-4 106,-6 154,-6zm-313,-15c0,-3 -2,-5 -5,-5c-3,0 -5,2 -5,5c0,3 2,5 5,5c3,0 5,-2 5,-5zm-30,-49c0,-3 -4,-8 -10,-11c-5,-3 -10,-1 -10,4c0,6 5,11 10,11c6,0 10,-2 10,-4zm577,-13c-4,-3 -10,-3 -14,0c-3,4 0,7 7,7c7,0 10,-3 7,-7zm-498,-39c34,-28 40,-51 16,-60c-20,-8 -86,61 -71,76c15,15 21,13 55,-16zm-134,6c3,-5 1,-10 -4,-10c-6,0 -11,5 -11,10c0,6 2,10 4,10c3,0 8,-4 11,-10zm595,-20c0,-31 -58,-66 -77,-47c-14,14 -13,19 15,46c32,33 62,33 62,1zm-563,3c-4,-3 -7,0 -7,7c0,7 3,10 7,7c3,-4 3,-10 0,-14zm603,12c0,-3 -2,-5 -5,-5c-3,0 -5,2 -5,5c0,3 2,5 5,5c3,0 5,-2 5,-5zm0,-20c0,-3 -2,-5 -5,-5c-3,0 -5,2 -5,5c0,3 2,5 5,5c3,0 5,-2 5,-5zm-560,-10c0,-3 -2,-5 -5,-5c-3,0 -5,2 -5,5c0,3 2,5 5,5c3,0 5,-2 5,-5zm-15,-15c3,-5 -1,-10 -9,-10c-9,0 -16,5 -16,10c0,6 4,10 9,10c6,0 13,-4 16,-10zm35,5c0,-3 -2,-5 -5,-5c-3,0 -5,2 -5,5c0,3 2,5 5,5c3,0 5,-2 5,-5zm550,-10c5,3 10,1 10,-4c0,-17 -37,-13 -44,5c-5,14 -4,15 8,5c8,-7 20,-10 26,-6zm-630,-46c0,-5 -9,-9 -20,-9c-19,0 -26,11 -14,23c8,8 34,-3 34,-14zm25,1c3,-5 1,-10 -4,-10c-6,0 -11,5 -11,10c0,6 2,10 4,10c3,0 8,-4 11,-10zm105,5c0,-3 -2,-5 -5,-5c-3,0 -5,2 -5,5c0,3 2,5 5,5c3,0 5,-2 5,-5zm48,-10c-2,-5 -8,-10 -15,-11c-6,-1 -9,4 -6,12c6,16 27,15 21,-1zm-78,1c0,-9 -40,-13 -46,-5c-3,5 6,9 20,9c14,0 26,-2 26,-4zm378,-13c-6,-7 -12,-13 -13,-13c-2,0 -5,6 -8,13c-3,7 3,13 14,13c13,0 15,-3 7,-13zm42,12c0,-3 -2,-5 -5,-5c-3,0 -5,2 -5,5c0,3 2,5 5,5c3,0 5,-2 5,-5zm65,-5c3,-5 -3,-10 -14,-10c-12,0 -21,5 -21,10c0,6 6,10 14,10c8,0 18,-4 21,-10zm90,0c3,-5 -1,-10 -9,-10c-9,0 -16,5 -16,10c0,6 4,10 9,10c6,0 13,-4 16,-10zm-611,-26c29,-11 16,-24 -24,-24c-38,0 -49,8 -33,23c8,9 36,9 57,1zm104,-7c6,3 12,0 12,-5c0,-12 -45,-21 -71,-15c-15,4 -17,9 -8,19c7,8 18,10 32,5c12,-5 28,-6 35,-4zm-191,-14c-4,-3 -7,0 -7,7c0,7 3,10 7,7c3,-4 3,-10 0,-14zm286,10c-9,-3 -9,-10 3,-28c13,-20 13,-23 -1,-29c-13,-4 -15,-1 -10,13c5,16 0,20 -21,23c-44,5 -42,28 3,26c21,-1 32,-3 26,-5zm90,-10c-7,-18 -40,-16 -46,2c-5,10 1,14 22,12c18,-1 27,-7 24,-14zm83,6c4,-8 9,-7 15,2c4,7 11,10 14,7c13,-13 -7,-28 -36,-28c-19,0 -29,5 -29,15c0,17 26,20 36,4zm104,1c0,-5 7,-7 15,-4c8,4 15,2 15,-4c0,-11 -50,-23 -62,-15c-16,9 -7,33 12,33c11,0 20,-4 20,-10zm101,-18c-33,-5 -60,6 -42,18c8,5 25,3 40,-3c25,-12 25,-12 2,-15zm-721,13c0,-3 -2,-5 -5,-5c-3,0 -5,2 -5,5c0,3 2,5 5,5c3,0 5,-2 5,-5zm790,-10c0,-3 -2,-5 -5,-5c-3,0 -5,2 -5,5c0,3 2,5 5,5c3,0 5,-2 5,-5zm-677,-36c3,-12 0,-19 -9,-19c-8,0 -14,4 -14,10c0,5 -7,7 -15,4c-8,-4 -23,-3 -32,1c-17,7 -16,8 2,15c35,13 63,8 68,-11zm93,-2c1,-10 -2,-17 -7,-17c-5,0 -9,5 -9,12c0,9 -3,9 -11,1c-14,-14 -49,-5 -49,13c0,22 73,12 76,-9zm85,13c10,0 19,-7 19,-15c0,-11 -11,-15 -40,-15c-27,0 -40,4 -40,13c0,19 12,29 28,22c7,-3 22,-5 33,-5zm189,-15c0,-8 -2,-15 -4,-15c-2,0 -6,7 -10,15c-3,8 -1,15 4,15c6,0 10,-7 10,-15zm28,-7c-4,-27 27,-37 95,-30c38,4 47,2 47,-10c0,-20 -161,-20 -168,0c-2,6 1,12 6,12c5,0 7,11 4,25c-2,15 0,25 7,25c7,0 11,-10 9,-22zm96,7c4,-11 -2,-15 -24,-15c-17,0 -33,0 -37,-1c-5,0 -9,7 -11,15c-5,22 63,22 72,1zm84,5c6,0 12,-4 12,-10c0,-5 -16,-10 -35,-10c-26,0 -35,4 -35,16c0,12 6,15 23,10c12,-3 28,-6 35,-6zm68,-1c10,-17 -13,-36 -27,-22c-12,12 -4,33 11,33c5,0 12,-5 16,-11zm-396,-14c0,-3 -2,-5 -5,-5c-3,0 -5,2 -5,5c0,3 2,5 5,5c3,0 5,-2 5,-5zm-380,-26c0,-24 -23,-21 -28,4c-2,10 3,17 12,17c10,0 16,-9 16,-21zm450,-14c0,-15 -19,-24 -37,-17c-14,4 -18,34 -7,45c10,10 44,-12 44,-28zm-273,5c-1,-13 -6,-19 -15,-15c-7,3 -25,5 -38,5c-15,0 -24,6 -24,15c0,11 11,15 39,15c34,0 40,-3 38,-20zm106,8c-2,-5 -3,-12 -3,-16c0,-11 -69,-12 -76,-1c-10,18 7,28 44,26c20,-1 36,-5 35,-9zm55,-5c-2,-10 -10,-18 -18,-18c-8,0 -16,8 -18,18c-2,12 3,17 18,17c15,0 20,-5 18,-17zm-298,2c0,-3 -2,-5 -5,-5c-3,0 -5,2 -5,5c0,3 2,5 5,5c3,0 5,-2 5,-5zm47,-1c-3,-3 -12,-4 -19,-1c-8,3 -5,6 6,6c11,1 17,-2 13,-5zm653,-9c0,-16 -35,-21 -44,-6c-8,12 4,21 26,21c10,0 18,-7 18,-15zm25,5c3,-5 1,-10 -4,-10c-6,0 -11,5 -11,10c0,6 2,10 4,10c3,0 8,-4 11,-10zm105,-10c0,-24 0,-24 -35,-6c-23,12 -24,15 -8,19c35,9 43,7 43,-13zm-490,-5c0,-3 -2,-5 -5,-5c-3,0 -5,2 -5,5c0,3 2,5 5,5c3,0 5,-2 5,-5zm-400,-20c0,-3 -2,-5 -5,-5c-3,0 -5,2 -5,5c0,3 2,5 5,5c3,0 5,-2 5,-5zm154,-6c-5,-8 -1,-8 14,0c31,17 82,14 82,-4c0,-12 -13,-15 -60,-15c-41,0 -60,4 -60,13c0,8 -3,8 -9,-2c-5,-8 -16,-11 -25,-8c-30,12 -16,27 25,27c27,0 38,-4 33,-11zm190,-6c4,-9 -5,-13 -34,-13c-29,0 -40,4 -40,15c0,19 67,18 74,-2zm136,12c0,-3 -2,-5 -5,-5c-3,0 -5,2 -5,5c0,3 2,5 5,5c3,0 5,-2 5,-5zm54,-1c9,-3 16,-12 16,-20c0,-17 -20,-19 -21,-1c0,9 -2,9 -5,0c-3,-7 -12,-9 -20,-6c-11,4 -12,9 -3,19c13,16 12,16 33,8zm116,-15c0,-4 -4,-11 -10,-14c-5,-3 -10,-1 -10,6c0,9 -3,10 -11,2c-6,-6 -19,-8 -30,-6c-18,5 -24,15 -14,24c7,8 75,-3 75,-12zm-200,6c0,-3 -2,-5 -5,-5c-3,0 -5,2 -5,5c0,3 2,5 5,5c3,0 5,-2 5,-5zm290,-7c0,-13 -44,-21 -68,-13c-24,9 -1,25 34,25c20,0 34,-5 34,-12zm65,2c18,-7 19,-8 3,-15c-21,-8 -48,0 -48,15c0,12 17,12 45,0zm-415,-10c0,-5 -2,-10 -4,-10c-3,0 -8,5 -11,10c-3,6 -1,10 4,10c6,0 11,-4 11,-10zm-330,-30c0,-5 -4,-10 -10,-10c-5,0 -10,5 -10,10c0,6 5,10 10,10c6,0 10,-4 10,-10zm20,5c0,-3 -2,-5 -5,-5c-3,0 -5,2 -5,5c0,3 2,5 5,5c3,0 5,-2 5,-5zm113,-10c-4,-15 -66,-12 -71,3c-3,10 6,13 34,10c22,-2 38,-7 37,-13zm97,3c0,-4 -16,-8 -36,-8c-19,0 -33,4 -29,9c7,12 65,11 65,-1zm83,2c8,0 7,-3 -2,-9c-17,-11 -53,-2 -45,11c3,5 13,7 21,4c8,-3 20,-6 26,-6zm116,0c28,0 1,-13 -29,-14c-19,-1 -30,4 -30,13c0,9 7,11 23,7c12,-3 28,-6 36,-6zm111,0c3,-1 -4,-5 -15,-10c-30,-13 -65,-12 -65,3c0,10 53,15 80,7zm90,-11c0,-5 -16,-9 -35,-9c-32,0 -43,8 -30,22c8,8 65,-3 65,-13zm-590,6c0,-3 -2,-5 -5,-5c-3,0 -5,2 -5,5c0,3 2,5 5,5c3,0 5,-2 5,-5zm680,-5c0,-5 -9,-11 -20,-11c-11,-1 -25,-2 -32,-3c-6,-1 -13,5 -15,12c-3,8 7,12 31,12c20,0 36,-4 36,-10zm60,5c0,-3 -2,-5 -5,-5c-3,0 -5,2 -5,5c0,3 2,5 5,5c3,0 5,-2 5,-5zm-720,-45c0,-13 -20,-13 -40,0c-12,8 -9,10 13,10c15,0 27,-4 27,-10zm27,3c-4,-3 -10,-3 -14,0c-3,4 0,7 7,7c7,0 10,-3 7,-7zm69,0c-11,-11 -35,-12 -42,-2c-3,5 7,9 22,9c15,0 24,-3 20,-7zm34,2c0,-3 -2,-5 -5,-5c-3,0 -5,2 -5,5c0,3 2,5 5,5c3,0 5,-2 5,-5zm55,-5c3,-6 -1,-7 -9,-4c-18,7 -21,14 -7,14c6,0 13,-4 16,-10zm95,5c0,-3 -2,-5 -5,-5c-3,0 -5,2 -5,5c0,3 2,5 5,5c3,0 5,-2 5,-5zm90,-10c0,-3 -2,-5 -5,-5c-3,0 -5,2 -5,5c0,3 2,5 5,5c3,0 5,-2 5,-5zm135,-5c17,-7 15,-9 -12,-9c-18,-1 -33,4 -33,9c0,12 17,12 45,0zm110,1c-20,-17 -62,-21 -62,-6c0,10 11,15 36,15c20,0 31,-4 26,-9zm65,-1c0,-5 -6,-10 -14,-10c-8,0 -18,5 -21,10c-3,6 3,10 14,10c12,0 21,-4 21,-10zm-543,-36c6,-17 -42,-74 -63,-74c-20,0 -26,18 -15,39c26,48 66,66 78,35zm-167,1c0,-3 -2,-5 -5,-5c-3,0 -5,2 -5,5c0,3 2,5 5,5c3,0 5,-2 5,-5zm63,-2c-7,-2 -19,-2 -25,0c-7,3 -2,5 12,5c14,0 19,-2 13,-5zm511,-18c26,-24 34,-49 17,-59c-12,-8 -71,51 -71,70c0,21 24,17 54,-11zm26,10c0,-3 -2,-5 -5,-5c-3,0 -5,2 -5,5c0,3 2,5 5,5c3,0 5,-2 5,-5zm65,-5c-3,-5 -13,-10 -21,-10c-8,0 -14,5 -14,10c0,6 9,10 21,10c11,0 17,-4 14,-10zm25,5c0,-3 -2,-5 -5,-5c-3,0 -5,2 -5,5c0,3 2,5 5,5c3,0 5,-2 5,-5zm-290,-15c35,-6 54,-18 83,-50c65,-75 45,-117 -51,-106c-31,4 -70,7 -87,7c-16,0 -56,-1 -88,-2c-101,-2 -115,40 -40,114c52,51 81,57 183,37zm-380,-31c0,-6 -4,-7 -10,-4c-5,3 -10,11 -10,16c0,6 5,7 10,4c6,-3 10,-11 10,-16zm620,-14c0,-3 -2,-5 -5,-5c-3,0 -5,2 -5,5c0,3 2,5 5,5c3,0 5,-2 5,-5zm-580,-30c0,-3 -2,-5 -5,-5c-3,0 -5,2 -5,5c0,3 2,5 5,5c3,0 5,-2 5,-5zm587,-22c-4,-3 -10,-3 -14,0c-3,4 0,7 7,7c7,0 10,-3 7,-7zm-530,-30c-4,-3 -10,-3 -14,0c-3,4 0,7 7,7c7,0 10,-3 7,-7zm483,-8c0,-3 -2,-5 -5,-5c-3,0 -5,2 -5,5c0,3 2,5 5,5c3,0 5,-2 5,-5zm-40,-50c0,-3 -2,-5 -5,-5c-3,0 -5,2 -5,5c0,3 2,5 5,5c3,0 5,-2 5,-5zm-200,-40c0,-19 -13,-25 -30,-15c-11,7 -11,11 -1,24c15,17 31,13 31,-9zm-235,-5c-3,-5 -12,-7 -20,-3c-21,7 -19,13 6,13c11,0 18,-4 14,-10zm85,5c0,-3 -2,-5 -5,-5c-3,0 -5,2 -5,5c0,3 2,5 5,5c3,0 5,-2 5,-5zm297,-2c-4,-3 -10,-3 -14,0c-3,4 0,7 7,7c7,0 10,-3 7,-7zm83,2c0,-3 -2,-5 -5,-5c-3,0 -5,2 -5,5c0,3 2,5 5,5c3,0 5,-2 5,-5zm30,1c0,-3 -4,-8 -10,-11c-5,-3 -10,-1 -10,4c0,6 5,11 10,11c6,0 10,-2 10,-4zm-100,-21c0,-3 -2,-5 -5,-5c-3,0 -5,2 -5,5c0,3 2,5 5,5c3,0 5,-2 5,-5zm-343,-31c-3,-3 -12,-4 -19,-1c-8,3 -5,6 6,6c11,1 17,-2 13,-5zm393,-4c0,-5 -9,-10 -21,-10c-11,0 -17,5 -14,10c3,6 13,10 21,10c8,0 14,-4 14,-10zm-158,-35c27,-11 31,-84 12,-213c-7,-44 -68,-78 -105,-58c-72,38 -69,31 -69,146c0,107 4,122 30,133c17,7 107,1 132,-8zm-348,-1c22,-9 20,-41 -4,-47c-23,-6 -45,16 -36,38c6,16 16,18 40,9zm66,-9c0,-3 -2,-5 -5,-5c-3,0 -5,2 -5,5c0,3 2,5 5,5c3,0 5,-2 5,-5zm90,0c0,-3 -2,-5 -5,-5c-3,0 -5,2 -5,5c0,3 2,5 5,5c3,0 5,-2 5,-5zm300,0c0,-3 -2,-5 -5,-5c-3,0 -5,2 -5,5c0,3 2,5 5,5c3,0 5,-2 5,-5zm145,-25c0,-38 -39,-35 -43,3c-3,25 0,28 20,25c17,-2 23,-9 23,-28zm-505,15c0,-3 -2,-5 -5,-5c-3,0 -5,2 -5,5c0,3 2,5 5,5c3,0 5,-2 5,-5zm400,-10c0,-3 -2,-5 -5,-5c-3,0 -5,2 -5,5c0,3 2,5 5,5c3,0 5,-2 5,-5zm-440,-30c0,-3 -2,-5 -5,-5c-3,0 -5,2 -5,5c0,3 2,5 5,5c3,0 5,-2 5,-5zm37,-2c-4,-3 -10,-3 -14,0c-3,4 0,7 7,7c7,0 10,-3 7,-7zm383,2c0,-3 -2,-5 -5,-5c-3,0 -5,2 -5,5c0,3 2,5 5,5c3,0 5,-2 5,-5zm30,-10c0,-3 -2,-5 -5,-5c-3,0 -5,2 -5,5c0,3 2,5 5,5c3,0 5,-2 5,-5zm-450,-35c0,-5 -4,-10 -9,-10c-6,0 -13,5 -16,10c-3,6 1,10 9,10c9,0 16,-4 16,-10zm-90,-5c0,-3 -2,-5 -5,-5c-3,0 -5,2 -5,5c0,3 2,5 5,5c3,0 5,-2 5,-5zm590,-11c0,-2 -7,-4 -15,-4c-8,0 -15,4 -15,10c0,5 7,7 15,4c8,-4 15,-8 15,-10zm-553,-31c-4,-3 -10,-3 -14,0c-3,4 0,7 7,7c7,0 10,-3 7,-7zm93,2c0,-3 -2,-5 -5,-5c-3,0 -5,2 -5,5c0,3 2,5 5,5c3,0 5,-2 5,-5zm413,-12c-7,-2 -19,-2 -25,0c-7,3 -2,5 12,5c14,0 19,-2 13,-5zm77,2c0,-3 -2,-5 -5,-5c-3,0 -5,2 -5,5c0,3 2,5 5,5c3,0 5,-2 5,-5zm-540,-50c0,-3 -2,-5 -5,-5c-3,0 -5,2 -5,5c0,3 2,5 5,5c3,0 5,-2 5,-5zm497,-2c-4,-3 -10,-3 -14,0c-3,4 0,7 7,7c7,0 10,-3 7,-7zm-487,-47c0,-20 -19,-31 -32,-18c-6,6 -7,15 -4,21c10,16 36,13 36,-3zm50,9c0,-3 -2,-5 -5,-5c-3,0 -5,2 -5,5c0,3 2,5 5,5c3,0 5,-2 5,-5zm-20,-10c0,-3 -2,-5 -5,-5c-3,0 -5,2 -5,5c0,3 2,5 5,5c3,0 5,-2 5,-5zm448,-12c-4,-22 -22,-20 -26,1c-2,10 3,16 13,16c10,0 15,-7 13,-17zm-385,-113l47,-30l0,-94l0,-94l-47,-27c-70,-39 -89,-27 -97,62c-4,37 -9,93 -12,124c-8,93 26,111 109,59zm357,-29c-1,-46 -26,-217 -34,-229c-12,-19 -49,-14 -89,13l-37,26l0,88c0,97 2,102 74,139c48,26 86,9 86,-37zm-175,-368c41,-50 55,-75 55,-99c0,-49 -16,-55 -131,-52l-104,3l-3,45c-2,42 1,48 57,108c32,34 61,62 64,62c4,0 31,-30 62,-67zm-289,36c10,-17 -13,-36 -27,-22c-12,12 -4,33 11,33c5,0 12,-5 16,-11zm482,-16c-2,-10 -10,-18 -18,-18c-8,0 -16,8 -18,18c-2,12 3,17 18,17c15,0 20,-5 18,-17zm-464,-235c8,-14 7,-21 -5,-33c-28,-29 -73,11 -48,42c15,17 38,13 53,-9zm460,-5c8,-20 -11,-43 -35,-43c-11,0 -19,2 -19,4c0,2 -3,11 -6,19c-7,18 22,48 41,41c7,-3 16,-13 19,-21zm-366,-75c-7,-20 -68,-23 -68,-4c0,12 10,16 36,16c24,0 34,-4 32,-12zm279,-5c4,-11 -54,-29 -64,-19c-3,3 -3,12 1,21c7,19 57,17 63,-2z" id="svg_2" transform="matrix(1 0 0 1 0 0) matrix(1 0 0 1 0 0)"/>
  </g>
 </g>
</svg>