<?xml version="1.0"?>
<svg width="144" height="216" xmlns="http://www.w3.org/2000/svg" xmlns:svg="http://www.w3.org/2000/svg" preserveAspectRatio="xMidYMid meet" version="1.0">
 <g class="layer">
  <title>Layer 1</title>
  <g fill="#000000" id="svg_1" transform="rotate(-1.99375 71.2548 105.463) translate(0 216) scale(0.1 -0.1)">
   <path d="m686,1929c-38,-30 -47,-59 -52,-179c-7,-146 -1,-135 -136,-259c-172,-158 -161,-137 -166,-308c-3,-97 -1,-148 6,-155c16,-16 4,-288 -13,-308c-8,-9 -14,-62 -18,-137c-7,-176 -13,-169 197,-254c93,-38 178,-69 188,-69c21,0 279,81 339,107c63,26 64,35 57,471c-2,121 0,155 11,161c15,10 29,258 17,307c-4,15 -40,62 -79,103c-40,42 -96,102 -125,133l-53,57l2,143l1,142l-36,33c-44,40 -98,45 -140,12zm92,-88c5,-30 -10,-45 -37,-36c-23,7 -28,34 -9,53c19,19 43,10 46,-17zm23,-389c39,-35 47,-104 14,-128c-23,-17 -147,-13 -170,6c-29,24 -19,79 21,116c46,44 90,46 135,6zm-344,-143c13,-13 6,-46 -12,-53c-23,-8 -48,18 -41,42c8,23 35,29 53,11zm598,-38c0,-33 -30,-51 -51,-29c-13,13 -14,20 -4,37c16,31 55,25 55,-8zm-442,-113c10,-8 18,-35 22,-73l6,-60l-35,-23l-35,-24l-46,32l-47,32l7,47c4,25 8,46 8,47c1,0 13,8 27,17c29,20 70,22 93,5zm313,-19c57,-35 46,-113 -21,-145c-73,-34 -113,5 -95,92c16,76 52,93 116,53zm-452,-286c-2,-88 -2,-88 -29,-91c-35,-5 -53,12 -35,33c9,10 11,34 7,75c-6,66 -4,70 33,70l26,0l-2,-87zm540,45c0,-10 -1,-49 -2,-88l-2,-70l-33,0l-34,0l4,78c3,42 6,83 9,90c6,21 59,11 58,-10zm-226,-28c34,-22 62,-45 62,-50c0,-69 -54,-307 -73,-322c-51,-40 -76,-43 -124,-17c-59,32 -56,23 -69,194c-13,170 -16,160 67,205c68,37 62,37 137,-10zm-363,-390c7,-23 -10,-50 -30,-50c-20,0 -37,27 -30,50c9,27 51,27 60,0zm609,-15c9,-25 -5,-45 -30,-45c-26,0 -40,20 -30,45c3,8 16,15 30,15c13,0 26,-7 30,-15z" id="svg_2"/>
  </g>
 </g>
</svg>