<?xml version="1.0"?>
<svg width="3510" height="1140" xmlns="http://www.w3.org/2000/svg" xmlns:svg="http://www.w3.org/2000/svg">
 <g class="layer">
  <title>Layer 1</title>
  <path d="m605,1237c-68,-56 -39,-131 76,-197c52,-30 88,-57 96,-72c7,-14 21,-40 30,-59c23,-44 23,-50 -16,-127c-33,-66 -36,-68 -111,-108c-111,-59 -133,-91 -107,-163c16,-44 35,-50 153,-44c61,4 159,9 218,12c90,4 110,2 120,-10c9,-13 43,-15 203,-18l192,-1l17,29l17,28l225,-7c129,-4 225,-11 227,-18c9,-33 27,-37 177,-43c117,-5 174,-3 243,8c137,25 321,45 457,54c148,8 163,18 163,105c0,58 -2,60 -77,116c-120,89 -123,122 -21,196c81,59 95,79 95,136c-1,77 -21,93 -138,103c-121,10 -294,36 -441,64c-103,19 -167,25 -276,25c-141,0 -172,-6 -172,-36c0,-13 -34,-15 -233,-15l-232,0l-9,24c-15,37 -19,38 -209,38c-153,0 -185,-2 -193,-15c-13,-20 -228,-23 -243,-3c-18,24 -199,23 -228,-1l-3,-1zm59,-75c-2,-26 -27,-37 -39,-21c-13,18 -1,43 21,43c17,0 21,-4 18,-23l0,1zm640,-14c2,-25 -13,-36 -37,-28c-19,6 -21,24 -7,42c15,20 42,10 44,-14zm-276,-30c-2,-28 -5,-31 -26,-27c-28,6 -74,5 -90,0c-12,-4 -21,24 -14,45c2,8 26,12 68,12l65,1l-2,-32l-1,1zm223,-21c0,-3 -2,-5 -4,-5s-4,2 -4,5s2,5 4,5s4,-2 4,-5zm71,0c0,-3 -2,-5 -4,-5s-4,2 -4,5s2,5 4,5s4,-2 4,-5zm772,-12c-3,-3 -6,0 -6,7s2,10 6,7c2,-4 2,-10 0,-14zm-77,2c0,-3 -2,-5 -4,-5s-4,2 -4,5s2,5 4,5s4,-2 4,-5zm158,-5c0,-5 -2,-10 -3,-10c-2,0 -6,5 -9,10c-2,6 -1,10 3,10c5,0 9,-4 9,-10zm71,5c0,-3 -2,-5 -4,-5s-4,2 -4,5s2,5 4,5s4,-2 4,-5zm79,-5c0,-5 -3,-10 -8,-10c-4,0 -8,5 -8,10c0,6 4,10 8,10c5,0 8,-4 8,-10zm-1143,-38c24,-55 4,-92 -54,-102c-41,-6 -46,-5 -62,20l-19,26l17,39c21,52 27,57 70,54c30,-3 37,-8 50,-36l-2,-1zm1754,22c6,-22 -1,-35 -18,-35c-17,0 -36,26 -28,41c8,16 41,12 47,-6l-1,0zm-319,-20c146,-19 159,-26 143,-76c-20,-60 -23,-61 -175,-54l-137,6l-22,56c-28,69 -17,100 33,90c15,-3 86,-12 158,-22zm-640,0c0,-3 -2,-5 -4,-5s-4,2 -4,5s2,5 4,5s4,-2 4,-5zm235,-12c-3,-3 -6,0 -6,7s2,10 6,7c2,-4 2,-10 0,-14zm-356,-25c6,-6 25,-46 43,-89l33,-77l-18,-43c-10,-23 -28,-62 -41,-85l-23,-44l-132,0c-73,0 -137,4 -142,8c-16,13 -73,146 -73,170c0,30 62,162 82,173c23,13 257,2 270,-12l1,-1zm-913,-20c0,-5 -3,-10 -8,-10c-4,0 -8,5 -8,10c0,6 4,10 8,10c5,0 8,-4 8,-10zm8,-36c0,-3 -2,-5 -4,-5s-4,2 -4,5s2,5 4,5s4,-2 4,-5zm467,-5c15,-11 15,-12 -2,-52c-17,-36 -17,-43 -8,-74c23,-74 25,-70 -43,-70c-102,0 -118,6 -133,53c-29,83 3,136 88,144c34,3 66,6 72,7c6,1 17,-3 26,-8zm-530,-5c0,-3 -2,-5 -4,-5s-4,2 -4,5s2,5 4,5s4,-2 4,-5zm21,-2c-3,-3 -8,-3 -11,0c-2,4 0,7 6,7s8,-3 6,-7l-1,0zm73,-3c0,-5 -3,-10 -8,-10c-4,0 -8,5 -8,10c0,6 4,10 8,10c5,0 8,-4 8,-10zm1242,-9c81,-8 95,-16 114,-65c13,-33 0,-81 -27,-99c-21,-14 -299,-26 -305,-13c-3,6 2,29 12,49l17,39l-17,46c-24,67 -32,66 206,42l0,1zm-1281,-37c0,-9 -5,-12 -12,-9c-6,4 -9,10 -7,15c6,14 19,10 19,-6zm76,4c6,-11 -21,-11 -36,0c-7,6 -4,9 10,9c12,0 23,-4 25,-9l1,0zm-107,-4c0,-3 -2,-5 -4,-5s-4,2 -4,5s2,5 4,5s4,-2 4,-5zm70,-48c-2,-5 -6,-9 -9,-8c-43,13 -54,31 -13,23c13,-2 23,-9 22,-14l0,-1zm70,5c-3,-3 -8,-3 -11,0c-2,4 0,7 6,7s8,-3 6,-7l-1,0zm-108,-42c0,-15 -9,-22 -21,-15c-9,5 -9,7 -1,14c13,11 22,11 22,1zm69,-9c-3,-3 -6,0 -6,7s2,10 6,7c2,-4 2,-10 0,-14zm-24,0c-3,-3 -8,-3 -11,0c-2,4 0,7 6,7s8,-3 6,-7l-1,0zm89,-8c0,-3 -2,-5 -4,-5s-4,2 -4,5s2,5 4,5s4,-2 4,-5zm87,-40c48,-28 15,-130 -42,-130c-36,0 -45,9 -66,59c-13,32 -13,35 9,67c21,30 54,31 99,4zm-217,4c2,-5 1,-10 -3,-10c-5,0 -9,5 -9,10c0,6 2,10 3,10c2,0 6,-4 9,-10zm25,-7c-3,-3 -6,0 -6,7s2,10 6,7c2,-4 2,-10 0,-14zm1753,2c13,-5 44,-87 39,-102c-3,-9 -37,-15 -110,-21c-58,-3 -128,-11 -155,-18c-80,-16 -105,11 -77,84c28,73 24,72 165,65c70,-3 131,-7 137,-9l1,1zm-1838,0c0,-3 -2,-5 -4,-5s-4,2 -4,5s2,5 4,5s4,-2 4,-5zm158,0c0,-3 -2,-5 -4,-5s-4,2 -4,5s2,5 4,5s4,-2 4,-5zm-190,-40c0,-3 -3,-8 -8,-11c-4,-3 -8,-1 -8,4c0,6 4,11 8,11c5,0 8,-2 8,-4zm47,-1c0,-3 -2,-5 -4,-5s-4,2 -4,5s2,5 4,5s4,-2 4,-5zm29,-12c-3,-3 -8,-3 -11,0c-2,4 0,7 6,7s8,-3 6,-7l-1,0zm1392,-8c0,-3 -2,-5 -4,-5s-4,2 -4,5s2,5 4,5s4,-2 4,-5zm-269,-41c0,-3 -2,-5 -4,-5s-4,2 -4,5s2,5 4,5s4,-2 4,-5zm873,-30c17,-16 11,-47 -10,-47c-22,0 -34,21 -24,43c9,23 15,23 35,4l-1,0zm-1909,-30l-2,-30l-63,0c-53,0 -64,3 -66,18c-6,36 3,41 69,41l65,0l-3,-29zm278,19c0,-3 -2,-5 -4,-5s-4,2 -4,5s2,5 4,5s4,-2 4,-5zm719,0c0,-3 -2,-5 -4,-5s-4,2 -4,5s2,5 4,5s4,-2 4,-5zm237,-11c0,-2 -6,-4 -12,-4s-12,4 -12,10c0,5 6,7 12,4c6,-4 12,-8 12,-10zm69,-11c-3,-3 -6,0 -6,7s2,10 6,7c2,-4 2,-10 0,-14zm-1664,-24c0,-22 -21,-41 -37,-34c-11,5 -14,36 -5,47c12,16 42,7 42,-13zm640,-5c0,-22 -4,-26 -24,-26c-23,0 -33,26 -18,44c14,20 42,7 42,-19l0,1zm908,0c0,-3 -2,-5 -4,-5s-4,2 -4,5s2,5 4,5s4,-2 4,-5z" fill="#000" id="svg_1" transform="matrix(0 1 -1 0 3175 -1685)"/>
 </g>
</svg>